<svg width="498" height="2722" viewBox="0 0 498 2722" fill="none" xmlns="http://www.w3.org/2000/svg">
<path d="M381 176C381 48.622 118 36.8414 118 176" stroke="#575757" stroke-width="54" stroke-linecap="round"/>
<path d="M381 369C381 241.622 118 229.841 118 369" stroke="#575757" stroke-width="54" stroke-linecap="round"/>
<path d="M381 562C381 434.622 118 422.841 118 562" stroke="#575757" stroke-width="54" stroke-linecap="round"/>
<path d="M381 755C381 627.622 118 615.841 118 755" stroke="#575757" stroke-width="54" stroke-linecap="round"/>
<path d="M381 948C381 820.622 118 808.841 118 948" stroke="#575757" stroke-width="54" stroke-linecap="round"/>
<path d="M381 1141C381 1013.62 118 1001.84 118 1141" stroke="#575757" stroke-width="54" stroke-linecap="round"/>
<path d="M381 1334C381 1206.62 118 1194.84 118 1334" stroke="#575757" stroke-width="54" stroke-linecap="round"/>
<path d="M381 1527C381 1399.62 118 1387.84 118 1527" stroke="#575757" stroke-width="54" stroke-linecap="round"/>
<path d="M381 1720C381 1592.62 118 1580.84 118 1720" stroke="#575757" stroke-width="54" stroke-linecap="round"/>
<path d="M381 1913C381 1785.62 118 1773.84 118 1913" stroke="#575757" stroke-width="54" stroke-linecap="round"/>
<path d="M381 2106C381 1978.62 118 1966.84 118 2106" stroke="#575757" stroke-width="54" stroke-linecap="round"/>
<path d="M381 2299C381 2171.62 118 2159.84 118 2299" stroke="#575757" stroke-width="54" stroke-linecap="round"/>
<path d="M381 2492C381 2364.62 118 2352.84 118 2492" stroke="#575757" stroke-width="54" stroke-linecap="round"/>
</svg>
